<?xml version="1.0" encoding="UTF-8" standalone="no"?>
<!DOCTYPE svg PUBLIC "-//W3C//DTD SVG 1.1//EN" "http://www.w3.org/Graphics/SVG/1.1/DTD/svg11.dtd">
<svg version="1.1" xmlns="http://www.w3.org/2000/svg" xmlns:xlink="http://www.w3.org/1999/xlink" preserveAspectRatio="xMidYMid meet" viewBox="0 0 640 640" width="auto" height="auto"><defs><path d="M220.56 130.04L221.25 130.1L221.92 130.18L222.57 130.27L223.2 130.39L223.81 130.53L224.4 130.69L224.98 130.86L225.54 131.06L226.08 131.27L226.6 131.5L227.11 131.75L227.61 132.02L228.09 132.3L228.55 132.6L229.01 132.91L229.45 133.24L229.88 133.59L230.3 133.95L230.7 134.32L231.1 134.7L231.48 135.1L231.86 135.51L232.23 135.94L232.59 136.37L232.94 136.82L233.28 137.28L233.62 137.75L233.95 138.22L234.28 138.71L234.6 139.21L234.92 139.72L235.23 140.23L235.54 140.75L235.85 141.28L236.15 141.82L236.46 142.36L236.76 142.91L237.06 143.46L246.53 164.8L563.75 164.8L564.42 164.81L565.08 164.85L565.74 164.92L566.38 165.01L567.02 165.13L567.65 165.27L568.27 165.44L568.88 165.63L569.48 165.84L570.07 166.08L570.65 166.33L571.22 166.61L571.77 166.91L572.31 167.23L572.83 167.58L573.34 167.94L573.84 168.32L574.32 168.71L574.79 169.13L575.24 169.56L575.67 170.01L576.09 170.48L576.48 170.96L576.86 171.46L577.22 171.97L577.56 172.49L577.88 173.03L578.19 173.59L578.46 174.15L578.72 174.73L578.96 175.32L579.17 175.92L579.36 176.53L579.53 177.15L579.67 177.78L579.79 178.42L579.88 179.07L579.95 179.72L579.99 180.39L580 181.06L580 473.74L579.99 474.41L579.95 475.07L579.88 475.73L579.79 476.38L579.67 477.02L579.53 477.65L579.36 478.27L579.17 478.88L578.96 479.48L578.72 480.07L578.46 480.64L578.19 481.21L577.88 481.76L577.56 482.3L577.22 482.83L576.86 483.34L576.48 483.84L576.09 484.32L575.67 484.79L575.24 485.24L574.79 485.67L574.32 486.08L573.84 486.48L573.34 486.86L572.83 487.22L572.31 487.56L571.77 487.88L571.22 488.18L570.65 488.46L570.07 488.72L569.48 488.96L568.88 489.17L568.27 489.36L567.65 489.53L567.02 489.67L566.38 489.79L565.74 489.88L565.08 489.95L564.42 489.99L563.75 490L76.25 490L75.58 489.99L74.92 489.95L74.26 489.88L73.62 489.79L72.98 489.67L72.35 489.53L71.73 489.36L71.12 489.17L70.52 488.96L69.93 488.72L69.35 488.46L68.78 488.18L68.23 487.88L67.69 487.56L67.17 487.22L66.66 486.86L66.16 486.48L65.68 486.08L65.21 485.67L64.76 485.24L64.33 484.79L63.91 484.32L63.52 483.84L63.14 483.34L62.78 482.83L62.44 482.3L62.12 481.76L61.81 481.21L61.54 480.64L61.28 480.07L61.04 479.48L60.83 478.88L60.64 478.27L60.47 477.65L60.33 477.02L60.21 476.38L60.12 475.73L60.05 475.07L60.01 474.41L60 473.74L60 181.06L60.01 180.39L60.05 179.72L60.12 179.07L60.21 178.42L60.33 177.78L60.47 177.15L60.64 176.53L60.83 175.92L61.04 175.32L61.28 174.73L61.54 174.15L61.81 173.59L62.12 173.03L62.44 172.49L62.78 171.97L63.14 171.46L63.52 170.96L63.91 170.48L64.33 170.01L64.76 169.56L65.21 169.13L65.68 168.71L66.16 168.32L66.66 167.94L67.17 167.58L67.69 167.23L68.23 166.91L68.78 166.61L69.35 166.33L69.93 166.08L70.52 165.84L71.12 165.63L71.73 165.44L72.35 165.27L72.98 165.13L73.62 165.01L74.26 164.92L74.92 164.85L75.58 164.81L76.25 164.8L84.07 164.8L93.54 143.46L93.76 142.91L93.99 142.36L94.23 141.82L94.47 141.28L94.73 140.75L95 140.23L95.27 139.72L95.56 139.21L95.85 138.71L96.16 138.22L96.48 137.75L96.81 137.28L97.15 136.82L97.5 136.37L97.87 135.94L98.24 135.51L98.63 135.1L99.03 134.7L99.45 134.32L99.87 133.95L100.31 133.59L100.77 133.24L101.23 132.91L101.71 132.6L102.21 132.3L102.72 132.02L103.24 131.75L103.78 131.5L104.33 131.27L104.9 131.06L105.49 130.86L106.09 130.69L106.7 130.53L107.34 130.39L107.98 130.27L108.65 130.18L109.33 130.1L110.03 130.04L110.75 130.01L111.48 130L219.12 130L219.85 130.01L220.56 130.04Z" id="dVIzQ6zI2"></path></defs><g><g><g><use xlink:href="#dVIzQ6zI2" opacity="1" fill="#404040" fill-opacity="1"></use></g></g></g></svg>
