<?xml version="1.0" encoding="UTF-8" standalone="no"?>
<!DOCTYPE svg PUBLIC "-//W3C//DTD SVG 1.1//EN" "http://www.w3.org/Graphics/SVG/1.1/DTD/svg11.dtd">
<svg version="1.1" xmlns="http://www.w3.org/2000/svg" xmlns:xlink="http://www.w3.org/1999/xlink" preserveAspectRatio="xMidYMid meet" viewBox="0 0 640 640" width="auto" height="auto"><defs><path d="M475.45 192.12C480.1 192.12 483.88 195.89 483.88 200.54C483.88 276.43 483.88 495.68 483.88 571.57C483.88 576.23 480.1 580 475.45 580C449.14 580 378.62 580 352.3 580C347.65 580 343.88 576.23 343.88 571.57C343.88 495.68 343.88 276.43 343.88 200.54C343.88 195.89 347.65 192.12 352.3 192.12C378.62 192.12 449.14 192.12 475.45 192.12Z" id="b1TVFw4iGo"></path><path d="M349.99 60C355.52 60 360 64.48 360 70.01C360 172.01 360 467.99 360 569.99C360 575.52 355.52 580 349.99 580C305.99 580 184.01 580 140.01 580C134.48 580 130 575.52 130 569.99C130 467.99 130 172.01 130 70.01C130 64.48 134.48 60 140.01 60C184.01 60 305.99 60 349.99 60Z" id="bOnOrXcIZ"></path><path d="M356.91 193L483.88 193L483.88 200L356.91 200L356.91 193Z" id="a5x2LWNBBd"></path><path d="M352.81 60L359 60L359 200L352.81 200L352.81 60Z" id="c28TgVJWOB"></path><path d="M359 60L483.88 193L359 193L359 60Z" id="k1ysJJoG7i"></path></defs><g><g><g><use xlink:href="#b1TVFw4iGo" opacity="1" fill="#404040" fill-opacity="1"></use></g><g><use xlink:href="#bOnOrXcIZ" opacity="1" fill="#404040" fill-opacity="1"></use></g><g><use xlink:href="#a5x2LWNBBd" opacity="1" fill="#272727" fill-opacity="1"></use></g><g><use xlink:href="#c28TgVJWOB" opacity="1" fill="#272727" fill-opacity="1"></use></g><g><use xlink:href="#k1ysJJoG7i" opacity="1" fill="#404040" fill-opacity="1"></use></g></g></g></svg>
